<svg class="fill-current h-8 w-14 mr-4" width="60" height="21" viewBox="0 0 60 21" xmlns="http://www.w3.org/2000/svg"><path d="M10,20.58a1.08,1.08,0,0,1-.78-.33L.32,11.39a1.12,1.12,0,0,1,0-1.57L9.4.75A1.1,1.1,0,0,1,11,.75a1.09,1.09,0,0,1,0,1.56l-8.29,8.3,8.08,8.08A1.11,1.11,0,0,1,10,20.58Z" fill="#ffffff"></path><path d="M39.27,20.58a1.1,1.1,0,0,1-.78-.33l-8.86-8.86a1.12,1.12,0,0,1,0-1.57L38.7.75a1.12,1.12,0,0,1,1.57,0,1.1,1.1,0,0,1,0,1.56L32,10.61l8.09,8.08a1.11,1.11,0,0,1-.79,1.89Z" fill="#ffffff"></path><path d="M53.67,12.46a1.11,1.11,0,0,1-.79-1.89l5.23-5.23a1.11,1.11,0,0,1,1.57,1.57l-5.23,5.22A1.1,1.1,0,0,1,53.67,12.46Z" fill="#ffffff"></path><path d="M46.79,10.61l8.29-8.3A1.1,1.1,0,0,0,53.52.75L44.44,9.82a1.12,1.12,0,0,0,0,1.57l8.87,8.86a1.08,1.08,0,0,0,.78.33,1.11,1.11,0,0,0,.78-1.89Z" fill="#ffffff"></path><path d="M15.79,20.58A1.11,1.11,0,0,1,15,18.69l8.09-8.08-8.3-8.3a1.1,1.1,0,0,1,0-1.56,1.12,1.12,0,0,1,1.57,0l9.07,9.07a1.1,1.1,0,0,1,0,1.57l-8.86,8.86A1.1,1.1,0,0,1,15.79,20.58Z" fill="#ffffff"></path></svg>